<svg xmlns="http://www.w3.org/2000/svg" viewBox="0 0 74.91 42.52" role="img" aria-labelledby="title">
  <title id="title">lltb architects</title>
  <g transform="translate(-558.58 0)" fill="currentColor">
    <path d="M558.58,42.52V0h7.65v42.52h-7.65Z"/>
    <path d="M576.55,42.52V0h7.65v42.52h-7.65Z"/>
    <polygon points="607.86 18.14 607.86 10.49 602.19 10.49 602.19 0 594.53 0 594.53 10.49 588.86 10.49 588.86 18.14 594.53 18.14 594.53 42.52 602.19 42.52 602.19 42.52 607.86 42.52 607.86 34.87 602.19 34.87 602.19 18.14 607.86 18.14"/>
    <path d="M633.48,10.49h-13.32V0h-7.65v42.52h20.98V10.49M625.83,34.87h-5.67v-16.72h5.67v16.72Z"/>
  </g>
</svg>
