<?xml version="1.0" encoding="UTF-8"?>
<svg id="_내용" data-name="내용" xmlns="http://www.w3.org/2000/svg" viewBox="0 0 141.73 70.87">
  <path d="M14.44,56.69V14.17h7.65v42.52h-7.65Z"/>
  <path d="M32.41,56.69V14.17h7.65v42.52h-7.65Z"/>
  <path d="M89.34,24.66h-13.32v-10.49h-7.65v42.52h20.98V24.66M81.69,49.04h-5.67v-16.72h5.67v16.72Z"/>
  <polygon points="63.71 32.32 63.71 24.66 58.04 24.66 58.04 14.17 50.39 14.17 50.39 24.66 44.72 24.66 44.72 32.32 50.39 32.32 50.39 56.69 58.04 56.69 58.04 56.69 63.71 56.69 63.71 49.04 58.04 49.04 58.04 32.32 63.71 32.32"/>
  <path d="M92.1,54.46c.3-.19.68-.3,1.14-.33.18-.01.37-.03.58-.04s.39-.02.53-.03v-.34c0-.24-.08-.43-.22-.56s-.36-.2-.64-.2c-.24,0-.43.05-.58.15s-.25.23-.29.39h-.83c.03-.23.11-.44.26-.63s.35-.33.6-.43.54-.15.87-.15c.27,0,.53.04.78.12s.46.23.63.45.26.52.26.9v2.82h-.81v-.58h-.03c-.1.19-.25.35-.46.48s-.48.2-.8.2c-.27,0-.51-.05-.73-.15s-.39-.25-.51-.44-.19-.42-.19-.69c0-.44.15-.75.45-.94ZM92.69,55.87c.15.11.34.16.58.16.22,0,.41-.04.57-.13s.29-.2.38-.35.13-.31.13-.48v-.39s-1,.07-1,.07c-.28.02-.5.08-.66.19s-.23.26-.23.47.07.35.22.46Z"/>
  <path d="M96.2,52.36h.8v.67h.05c.08-.23.21-.41.41-.54s.42-.2.67-.2c.12,0,.24,0,.35.02v.8s-.11-.02-.2-.03-.17-.02-.24-.02c-.19,0-.36.04-.52.12s-.27.2-.36.34-.13.31-.13.49v2.59h-.84v-4.24Z"/>
  <path d="M99.71,56.41c-.3-.19-.53-.44-.69-.78s-.24-.71-.24-1.13.08-.81.24-1.14.39-.59.69-.78.64-.28,1.04-.28c.32,0,.61.06.86.18s.46.29.62.5.25.47.28.75h-.81c-.05-.21-.15-.39-.31-.53s-.37-.21-.62-.21c-.23,0-.43.06-.6.18s-.31.29-.4.51-.14.48-.14.78.05.57.14.8.23.4.4.52.37.18.61.18.44-.06.61-.19.27-.3.32-.53h.81c-.03.28-.12.52-.27.74s-.35.39-.6.51-.54.18-.87.18c-.4,0-.75-.09-1.05-.28Z"/>
  <path d="M104.13,56.6h-.84v-5.66h.82v2.11h.05c.22-.5.64-.75,1.26-.75.29,0,.55.06.77.18s.39.3.51.54.18.53.18.88v2.7h-.84v-2.59c0-.31-.08-.55-.24-.73s-.38-.26-.66-.26c-.2,0-.37.04-.53.12s-.27.21-.36.37-.13.35-.13.57v2.52Z"/>
  <path d="M108.05,51.63c-.08-.04-.15-.1-.2-.18s-.07-.16-.07-.25.02-.17.07-.25.11-.14.2-.18.17-.07.26-.07.18.02.26.07.14.1.19.18.07.16.07.25-.02.17-.07.25-.11.14-.19.18-.17.07-.26.07-.18-.02-.26-.07ZM107.89,52.36h.84v4.24h-.84v-4.24Z"/>
  <path d="M111.72,53.02h-.87v2.33c0,.22.04.36.13.44s.21.12.37.13c.07,0,.19,0,.34-.02.02,0,.04,0,.08,0v.73c-.16.02-.33.03-.52.03-.23,0-.43-.04-.62-.12s-.34-.21-.45-.38-.17-.38-.16-.63v-2.5h-.62v-.66h.62v-1.02h.83v1.02h.87v.66Z"/>
  <path d="M113.25,56.42c-.3-.18-.54-.43-.7-.76s-.24-.71-.24-1.15.08-.82.24-1.15.39-.59.69-.78.64-.28,1.03-.28c.34,0,.65.07.94.22s.51.38.69.7.26.72.26,1.21v.3h-3.02c0,.26.06.49.16.68s.24.34.42.44.38.15.62.15.42-.04.57-.13.27-.2.35-.33h.84c-.06.23-.17.43-.34.6s-.37.31-.61.4-.52.14-.83.14c-.41,0-.77-.09-1.07-.27ZM115.33,54.11c0-.22-.04-.41-.13-.58s-.21-.3-.37-.4-.34-.14-.55-.14-.41.05-.58.15-.3.24-.4.41-.15.36-.16.56h2.19Z"/>
  <path d="M117.72,56.41c-.3-.19-.53-.44-.69-.78s-.24-.71-.24-1.13.08-.81.24-1.14.39-.59.69-.78.64-.28,1.04-.28c.32,0,.61.06.86.18s.46.29.62.5.25.47.28.75h-.81c-.05-.21-.15-.39-.31-.53s-.37-.21-.62-.21c-.23,0-.43.06-.6.18s-.31.29-.4.51-.14.48-.14.78.05.57.14.8.23.4.4.52.37.18.61.18.44-.06.61-.19.27-.3.32-.53h.81c-.03.28-.12.52-.27.74s-.35.39-.6.51-.54.18-.87.18c-.4,0-.75-.09-1.05-.28Z"/>
  <path d="M123.29,53.02h-.87v2.33c0,.22.04.36.13.44s.21.12.37.13c.07,0,.19,0,.34-.02.02,0,.04,0,.08,0v.73c-.16.02-.33.03-.52.03-.23,0-.43-.04-.62-.12s-.34-.21-.45-.38-.17-.38-.16-.63v-2.5h-.62v-.66h.62v-1.02h.83v1.02h.87v.66Z"/>
  <path d="M126.15,53.11c-.14-.1-.32-.15-.54-.15-.16,0-.3.03-.42.08s-.22.12-.29.21-.1.18-.1.29c0,.13.05.24.15.32s.28.16.51.21l.67.16c.39.09.68.22.87.41s.29.43.29.74c0,.25-.07.48-.21.68s-.34.35-.6.46-.57.17-.92.17c-.5,0-.91-.11-1.2-.32s-.47-.52-.52-.92h.85c.07.38.36.57.87.57.27,0,.49-.05.65-.15s.24-.24.24-.42c0-.14-.06-.25-.17-.34s-.27-.16-.49-.21l-.66-.14c-.38-.09-.67-.23-.87-.43s-.29-.44-.29-.74c0-.25.07-.47.21-.66s.33-.34.58-.45.53-.16.86-.16.58.05.81.15.42.24.55.42.22.39.25.64h-.8c-.04-.17-.13-.31-.26-.41Z"/>
</svg>